<?xml version="1.0" encoding="utf-8"?><svg viewBox="0 0 100 100" xmlns="http://www.w3.org/2000/svg" width="203px" height="203px" xmlns:xlink="http://www.w3.org/1999/xlink" style="width:100%;height:100%;background-color:rgb(255, 255, 255);animation-play-state:paused" ><g class="ldl-scale" style="transform-origin:50% 50% 0px;transform:rotate(0deg) scale(0.44);animation-play-state:paused" ><path fill="#f5e169" d="M89.699 49.621L79.268 39.19l-6.662-6.662-19.058-19.059a5.017 5.017 0 0 0-7.095 0L27.394 32.528l-6.662 6.662-10.431 10.431a5.27 5.27 0 0 0 0 7.451l.075.075a5.27 5.27 0 0 0 7.451 0l2.905-2.905v28.296a5.461 5.461 0 0 0 5.461 5.461h11.052a4.263 4.263 0 0 0 4.263-4.263V72.463h16.984v11.274A4.263 4.263 0 0 0 62.755 88h11.052a5.461 5.461 0 0 0 5.461-5.461V54.242l2.905 2.905a5.27 5.27 0 0 0 7.451 0l.075-.075a5.268 5.268 0 0 0 0-7.451zM37.327 83.737a.08.08 0 1 0 0 0zm25.346 0c0 .022.026.026.041.041-.015-.015-.041-.018-.041-.041z" style="fill:rgb(32, 201, 151);animation-play-state:paused" ></path>
<metadata xmlns:d="https://loading.io/stock/" style="animation-play-state:paused" ><d:name style="animation-play-state:paused" >home</d:name>


<d:tags style="animation-play-state:paused" >home,house,building,landing,back,shelter</d:tags>


<d:license style="animation-play-state:paused" >by</d:license>


<d:slug style="animation-play-state:paused" >dl9isx</d:slug></metadata></g><!-- generated by https://loading.io/ --></svg>